# xmcd
#
# Track frame offsets: 
#        150
#        12736
#        23952
#        37132
#        49720
#        65363
#        77055
#        90895
#        101122
#
# Disc length: 1532 seconds
#
# Revision: 0
# Processed by: cddbd v1.5.1PL0 Copyright (c) Steve Scherf et al.
# Submitted via: ExactAudioCopy v0.95a5
#
DISCID=6e05fa09
DTITLE=You Gonna Miss Me - Muddy Waters
DYEAR=1900
DGENRE=Blues
TTITLE0=Mean Mistreater
TTITLE1=I Can't Call Her Sugar
TTITLE2=Can't Lose What You Ain't Never Had
TTITLE3=The Stuff You Gotta Watch
TTITLE4=Iodine In My Coffee
TTITLE5=You Gonna Miss Me
TTITLE6=Close to You
TTITLE7=Mean Red Spider
TTITLE8=You Gonna Need My Help
EXTD=
EXTT0=
EXTT1=
EXTT2=
EXTT3=
EXTT4=
EXTT5=
EXTT6=
EXTT7=
EXTT8=
PLAYORDER=
